<svg width="300" height="55" viewBox="0 0 300 55" fill="none" xmlns="http://www.w3.org/2000/svg">
<path d="M24.0374 2.85449C24.0374 4.43076 22.7591 5.709 21.1829 5.709C19.6066 5.709 18.3284 4.43076 18.3284 2.85449C18.3284 1.27822 19.6066 0 21.1829 0C22.7591 0 24.0374 1.27822 24.0374 2.85449Z" fill="#FF840A"/>
<path d="M24.0374 12.7695C24.0374 14.3458 22.7591 15.624 21.1829 15.624C19.6066 15.624 18.3284 14.3458 18.3284 12.7695C18.3284 11.1932 19.6066 9.91501 21.1829 9.91501C22.7591 9.91501 24.0374 11.1932 24.0374 12.7695Z" fill="#FF840A"/>
<path d="M34.2526 2.85449C34.2526 4.43076 32.9744 5.709 31.3981 5.709C29.8218 5.709 28.5436 4.43076 28.5436 2.85449C28.5436 1.27822 29.8218 0 31.3981 0C32.9751 0 34.2526 1.27822 34.2526 2.85449Z" fill="#FF840A"/>
<path d="M34.2526 12.7695C34.2526 14.3458 32.9744 15.624 31.3981 15.624C29.8218 15.624 28.5436 14.3458 28.5436 12.7695C28.5436 11.1932 29.8218 9.91501 31.3981 9.91501C32.9751 9.91501 34.2526 11.1932 34.2526 12.7695Z" fill="#FF840A"/>
<path d="M34.2526 22.6845C34.2526 24.2608 32.9744 25.539 31.3981 25.539C29.8218 25.539 28.5436 24.2608 28.5436 22.6845C28.5436 21.1082 29.8218 19.83 31.3981 19.83C32.9751 19.83 34.2526 21.1082 34.2526 22.6845Z" fill="#FF840A"/>
<path d="M34.2526 32.5995C34.2526 34.1758 32.9744 35.454 31.3981 35.454C29.8218 35.454 28.5436 34.1758 28.5436 32.5995C28.5436 31.0232 29.8218 29.745 31.3981 29.745C32.9751 29.7457 34.2526 31.0232 34.2526 32.5995Z" fill="#FF840A"/>
<path d="M44.4684 2.85449C44.4684 4.43076 43.1909 5.709 41.6146 5.709C40.0384 5.709 38.7601 4.43076 38.7601 2.85449C38.7601 1.27822 40.0384 0 41.6146 0C43.1909 0 44.4684 1.27822 44.4684 2.85449Z" fill="#FF840A"/>
<path d="M44.4684 12.7695C44.4684 14.3458 43.1909 15.624 41.6146 15.624C40.0384 15.624 38.7601 14.3458 38.7601 12.7695C38.7601 11.1932 40.0384 9.91501 41.6146 9.91501C43.1909 9.91501 44.4684 11.1932 44.4684 12.7695Z" fill="#FF840A"/>
<path d="M44.4684 22.6845C44.4684 24.2608 43.1909 25.539 41.6146 25.539C40.0384 25.539 38.7601 24.2608 38.7601 22.6845C38.7601 21.1082 40.0384 19.83 41.6146 19.83C43.1909 19.83 44.4684 21.1082 44.4684 22.6845Z" fill="#FF840A"/>
<path d="M44.4684 32.5995C44.4684 34.1758 43.1909 35.454 41.6146 35.454C40.0384 35.454 38.7601 34.1758 38.7601 32.5995C38.7601 31.0232 40.0384 29.745 41.6146 29.745C43.1909 29.745 44.4684 31.0232 44.4684 32.5995Z" fill="#FF840A"/>
<path d="M54.6836 2.85449C54.6836 4.43076 53.4054 5.709 51.8291 5.709C50.2528 5.709 48.9746 4.43076 48.9746 2.85449C48.9746 1.27822 50.2528 0 51.8291 0C53.4054 0 54.6836 1.27822 54.6836 2.85449Z" fill="#FF840A"/>
<path d="M54.6836 12.7695C54.6836 14.3458 53.4054 15.624 51.8291 15.624C50.2528 15.624 48.9746 14.3458 48.9746 12.7695C48.9746 11.1932 50.2528 9.91501 51.8291 9.91501C53.4054 9.91501 54.6836 11.1932 54.6836 12.7695Z" fill="#FF840A"/>
<path d="M18.6292 7.96245C18.6292 9.20725 17.6206 10.2159 16.3758 10.2159C15.131 10.2159 14.1223 9.20725 14.1223 7.96245C14.1223 6.71765 15.131 5.70901 16.3758 5.70901C17.6206 5.70901 18.6292 6.71765 18.6292 7.96245Z" fill="#16222A"/>
<path d="M18.6292 17.8775C18.6292 19.1223 17.6206 20.1309 16.3758 20.1309C15.131 20.1309 14.1223 19.1223 14.1223 17.8775C14.1223 16.6327 15.131 15.624 16.3758 15.624C17.6206 15.624 18.6292 16.6327 18.6292 17.8775Z" fill="#16222A"/>
<path d="M28.5445 7.96245C28.5445 9.20725 27.5358 10.2159 26.291 10.2159C25.0462 10.2159 24.0376 9.20725 24.0376 7.96245C24.0376 6.71765 25.0462 5.70901 26.291 5.70901C27.5351 5.70901 28.5445 6.71765 28.5445 7.96245Z" fill="#16222A"/>
<path d="M28.5445 17.8775C28.5445 19.1223 27.5358 20.1309 26.291 20.1309C25.0462 20.1309 24.0376 19.1223 24.0376 17.8775C24.0376 16.6327 25.0462 15.624 26.291 15.624C27.5351 15.624 28.5445 16.6327 28.5445 17.8775Z" fill="#16222A"/>
<path d="M28.5445 27.7925C28.5445 29.0373 27.5358 30.0459 26.291 30.0459C25.0462 30.0459 24.0376 29.0373 24.0376 27.7925C24.0376 26.5477 25.0462 25.539 26.291 25.539C27.5351 25.539 28.5445 26.5477 28.5445 27.7925Z" fill="#16222A"/>
<path d="M28.5445 37.7075C28.5445 38.9523 27.5358 39.9609 26.291 39.9609C25.0462 39.9609 24.0376 38.9523 24.0376 37.7075C24.0376 36.4627 25.0462 35.454 26.291 35.454C27.5351 35.454 28.5445 36.4627 28.5445 37.7075Z" fill="#16222A"/>
<path d="M38.4593 7.96245C38.4593 9.20725 37.4506 10.2159 36.2058 10.2159C34.961 10.2159 33.9524 9.20725 33.9524 7.96245C33.9524 6.71765 34.961 5.70901 36.2058 5.70901C37.4499 5.70901 38.4593 6.71765 38.4593 7.96245Z" fill="#16222A"/>
<path d="M38.4593 17.8775C38.4593 19.1223 37.4506 20.1309 36.2058 20.1309C34.961 20.1309 33.9524 19.1223 33.9524 17.8775C33.9524 16.6327 34.961 15.624 36.2058 15.624C37.4499 15.624 38.4593 16.6327 38.4593 17.8775Z" fill="#16222A"/>
<path d="M38.4593 27.7925C38.4593 29.0373 37.4506 30.0459 36.2058 30.0459C34.961 30.0459 33.9524 29.0373 33.9524 27.7925C33.9524 26.5477 34.961 25.539 36.2058 25.539C37.4499 25.539 38.4593 26.5477 38.4593 27.7925Z" fill="#16222A"/>
<path d="M38.4593 37.7075C38.4593 38.9523 37.4506 39.9609 36.2058 39.9609C34.961 39.9609 33.9524 38.9523 33.9524 37.7075C33.9524 36.4627 34.961 35.454 36.2058 35.454C37.4499 35.454 38.4593 36.4627 38.4593 37.7075Z" fill="#16222A"/>
<path d="M48.6745 7.96245C48.6745 9.20725 47.6658 10.2159 46.421 10.2159C45.1762 10.2159 44.1676 9.20725 44.1676 7.96245C44.1676 6.71765 45.177 5.70901 46.421 5.70901C47.6658 5.70901 48.6745 6.71765 48.6745 7.96245Z" fill="#16222A"/>
<path d="M48.6745 17.8775C48.6745 19.1223 47.6658 20.1309 46.421 20.1309C45.1762 20.1309 44.1676 19.1223 44.1676 17.8775C44.1676 16.6327 45.177 15.624 46.421 15.624C47.6658 15.624 48.6745 16.6327 48.6745 17.8775Z" fill="#16222A"/>
<path d="M13.2204 12.9196C13.2204 13.9154 12.4131 14.7221 11.4179 14.7221C10.4221 14.7221 9.61548 13.9147 9.61548 12.9196C9.61548 11.9238 10.4228 11.1171 11.4179 11.1171C12.4138 11.1171 13.2204 11.9238 13.2204 12.9196Z" fill="#16222A"/>
<path d="M13.2204 22.8346C13.2204 23.8304 12.4131 24.6371 11.4179 24.6371C10.4221 24.6371 9.61548 23.8297 9.61548 22.8346C9.61548 21.8388 10.4228 21.0321 11.4179 21.0321C12.4138 21.0321 13.2204 21.8395 13.2204 22.8346Z" fill="#16222A"/>
<path d="M7.81245 17.7274C7.81245 18.5568 7.13955 19.2297 6.31016 19.2297C5.48076 19.2297 4.80786 18.5568 4.80786 17.7274C4.80786 16.898 5.48076 16.2251 6.31016 16.2251C7.14026 16.2251 7.81245 16.8973 7.81245 17.7274Z" fill="#16222A"/>
<path d="M2.40424 22.8346C2.40424 23.4983 1.86649 24.0367 1.20212 24.0367C0.538464 24.0367 0 23.499 0 22.8346C0 22.171 0.537753 21.6325 1.20212 21.6325C1.86649 21.6332 2.40424 22.171 2.40424 22.8346Z" fill="#16222A"/>
<path d="M2.40424 32.7496C2.40424 33.4133 1.86649 33.9517 1.20212 33.9517C0.538464 33.9517 0 33.414 0 32.7496C0 32.0859 0.537753 31.5475 1.20212 31.5475C1.86649 31.5482 2.40424 32.0859 2.40424 32.7496Z" fill="#16222A"/>
<path d="M12.6201 32.7496C12.6201 33.4133 12.0823 33.9517 11.4179 33.9517C10.7543 33.9517 10.2158 33.414 10.2158 32.7496C10.2158 32.0859 10.7536 31.5475 11.4179 31.5475C12.0816 31.5482 12.6201 32.0859 12.6201 32.7496Z" fill="#16222A"/>
<path d="M12.6201 42.9655C12.6201 43.6292 12.0823 44.1676 11.4179 44.1676C10.7543 44.1676 10.2158 43.6299 10.2158 42.9655C10.2158 42.3019 10.7536 41.7634 11.4179 41.7634C12.0816 41.7634 12.6201 42.3019 12.6201 42.9655Z" fill="#16222A"/>
<path d="M12.6201 52.8805C12.6201 53.5441 12.0823 54.0826 11.4179 54.0826C10.7543 54.0826 10.2158 53.5441 10.2158 52.8805C10.2158 52.2168 10.7536 51.6784 11.4179 51.6784C12.0816 51.6784 12.6201 52.2168 12.6201 52.8805Z" fill="#16222A"/>
<path d="M22.5352 52.8805C22.5352 53.5441 21.9975 54.0826 21.3331 54.0826C20.6694 54.0826 20.131 53.5441 20.131 52.8805C20.131 52.2168 20.6687 51.6784 21.3331 51.6784C21.9968 51.6784 22.5352 52.2168 22.5352 52.8805Z" fill="#16222A"/>
<path d="M7.81245 27.9425C7.81245 28.7719 7.13955 29.4448 6.31016 29.4448C5.48076 29.4448 4.80786 28.7719 4.80786 27.9425C4.80786 27.1131 5.48076 26.4402 6.31016 26.4402C7.14026 26.4402 7.81245 27.1131 7.81245 27.9425Z" fill="#16222A"/>
<path d="M18.0283 27.9425C18.0283 28.7719 17.3554 29.4448 16.526 29.4448C15.6966 29.4448 15.0237 28.7719 15.0237 27.9425C15.0237 27.1131 15.6966 26.4402 16.526 26.4402C17.3554 26.4402 18.0283 27.1131 18.0283 27.9425Z" fill="#16222A"/>
<path d="M18.0283 37.8576C18.0283 38.6869 17.3554 39.3598 16.526 39.3598C15.6966 39.3598 15.0237 38.6869 15.0237 37.8576C15.0237 37.0282 15.6966 36.3553 16.526 36.3553C17.3554 36.3553 18.0283 37.0282 18.0283 37.8576Z" fill="#16222A"/>
<path d="M18.0283 47.7725C18.0283 48.6019 17.3554 49.2748 16.526 49.2748C15.6966 49.2748 15.0237 48.6019 15.0237 47.7725C15.0237 46.9431 15.6966 46.2702 16.526 46.2702C17.3554 46.271 18.0283 46.9431 18.0283 47.7725Z" fill="#16222A"/>
<path d="M27.9432 47.7725C27.9432 48.6019 27.2703 49.2748 26.4409 49.2748C25.6115 49.2748 24.9386 48.6019 24.9386 47.7725C24.9386 46.9431 25.6115 46.2702 26.4409 46.2702C27.2703 46.271 27.9432 46.9431 27.9432 47.7725Z" fill="#16222A"/>
<path d="M23.1362 22.8346C23.1362 23.8304 22.3288 24.6371 21.3337 24.6371C20.3379 24.6371 19.5312 23.8297 19.5312 22.8346C19.5312 21.8388 20.3386 21.0321 21.3337 21.0321C22.3288 21.0321 23.1362 21.8395 23.1362 22.8346Z" fill="#16222A"/>
<path d="M23.1362 32.7496C23.1362 33.7454 22.3288 34.5521 21.3337 34.5521C20.3379 34.5521 19.5312 33.7447 19.5312 32.7496C19.5312 31.7537 20.3386 30.9471 21.3337 30.9471C22.3288 30.9471 23.1362 31.7545 23.1362 32.7496Z" fill="#16222A"/>
<path d="M23.1362 42.9655C23.1362 43.9613 22.3288 44.768 21.3337 44.768C20.3379 44.768 19.5312 43.9613 19.5312 42.9655C19.5312 41.9697 20.3386 41.163 21.3337 41.163C22.3288 41.163 23.1362 41.9697 23.1362 42.9655Z" fill="#16222A"/>
<path d="M33.3513 42.9655C33.3513 43.9613 32.5439 44.768 31.5488 44.768C30.553 44.768 29.7463 43.9613 29.7463 42.9655C29.7463 41.9697 30.5537 41.163 31.5488 41.163C32.5439 41.163 33.3513 41.9697 33.3513 42.9655Z" fill="#16222A"/>
<path d="M86.0298 34.4709C86.0298 36.6518 84.2622 38.4195 82.0806 38.4195C79.8997 38.4195 78.1321 36.6518 78.1321 34.4709C78.1321 32.2901 79.8997 30.5224 82.0806 30.5224C84.2622 30.5224 86.0298 32.2901 86.0298 34.4709Z" fill="#FF840A"/>
<path d="M281.774 14.3948C281.774 16.5757 280.006 18.3433 277.825 18.3433C275.644 18.3433 273.876 16.5757 273.876 14.3948C273.876 12.2139 275.644 10.4463 277.825 10.4463C280.006 10.4463 281.774 12.2139 281.774 14.3948Z" fill="#FF840A"/>
<path d="M78.8362 15.7029H69.8779V10.4236H94.2746V15.7029H85.3156V27.5015H78.8362V15.7029Z" fill="#16222A"/>
<path d="M114.792 32.4209H101.794L99.3142 38.4201H92.6755L105.154 10.4243H111.553L124.071 38.4201H117.273L114.792 32.4209ZM112.752 27.5015L108.312 16.7827L103.873 27.5015H112.752Z" fill="#16222A"/>
<path d="M152.651 10.4235V38.4194H147.332L133.374 21.4219V38.4194H126.975V10.4235H132.334L146.252 27.4211V10.4235H152.651Z" fill="#16222A"/>
<path d="M179.832 23.8617C181.433 24.3681 182.685 25.2217 183.591 26.4217C184.498 27.5947 184.951 29.0479 184.951 30.7814C184.951 33.234 183.991 35.1275 182.071 36.4605C180.178 37.7672 177.405 38.4201 173.753 38.4201H159.274V10.4243H172.952C176.365 10.4243 178.978 11.0772 180.791 12.3839C182.63 13.6906 183.551 15.4632 183.551 17.7031C183.551 19.0632 183.217 20.2759 182.551 21.3429C181.911 22.4085 181.006 23.2485 179.832 23.8617ZM165.714 15.3032V21.902H172.154C173.753 21.902 174.967 21.6218 175.793 21.062C176.618 20.5021 177.033 19.6756 177.033 18.5823C177.033 17.489 176.619 16.676 175.793 16.1425C174.966 15.5827 173.753 15.3024 172.154 15.3024H165.714V15.3032ZM173.273 33.5405C174.98 33.5405 176.259 33.2603 177.113 32.7005C177.992 32.1407 178.433 31.2743 178.433 30.1006C178.433 27.781 176.713 26.6209 173.273 26.6209H165.715V33.5398H173.273V33.5405Z" fill="#16222A"/>
<path d="M208.294 32.4209H195.295L192.816 38.4201H186.177L198.656 10.4243H205.055L217.573 38.4201H210.774L208.294 32.4209ZM206.255 27.5015L201.815 16.7827L197.376 27.5015H206.255Z" fill="#16222A"/>
<path d="M220.477 10.4235H226.956V33.14H240.994V38.4194H220.476V10.4235H220.477Z" fill="#16222A"/>
<path d="M263.286 32.4209H250.288L247.808 38.4201H241.169L253.648 10.4243H260.047L272.565 38.4201H265.766L263.286 32.4209ZM261.246 27.5015L256.806 16.7827L252.368 27.5015H261.246Z" fill="#16222A"/>
<path d="M287.321 38.8995C283.322 38.8995 280.203 37.7927 277.963 35.5798C275.75 33.367 274.643 30.2073 274.643 26.1009V20.3727H281.122V25.8612C281.122 30.8738 283.202 33.3798 287.361 33.3798C289.387 33.3798 290.934 32.7801 292.001 31.5801C293.067 30.3538 293.601 28.4475 293.601 25.8612V10.4235H300V26.1016C300 30.2073 298.88 33.367 296.64 35.5806C294.428 37.7935 291.321 38.8995 287.321 38.8995Z" fill="#16222A"/>
</svg>
