<svg width="151" height="28" viewBox="0 0 151 28" fill="none" xmlns="http://www.w3.org/2000/svg">
<path d="M12.5398 1.91066C12.5398 2.69853 11.9009 3.33744 11.1131 3.33744C10.3252 3.33744 9.68628 2.69853 9.68628 1.91066C9.68628 1.12278 10.3252 0.483887 11.1131 0.483887C11.9009 0.483887 12.5398 1.12278 12.5398 1.91066Z" fill="#FF840A"/>
<path d="M12.5398 6.86623C12.5398 7.6541 11.9009 8.293 11.1131 8.293C10.3252 8.293 9.68628 7.6541 9.68628 6.86623C9.68628 6.07836 10.3252 5.43945 11.1131 5.43945C11.9009 5.43945 12.5398 6.07836 12.5398 6.86623Z" fill="#FF840A"/>
<path d="M17.6457 1.91066C17.6457 2.69853 17.0068 3.33744 16.2189 3.33744C15.431 3.33744 14.7921 2.69853 14.7921 1.91066C14.7921 1.12278 15.431 0.483887 16.2189 0.483887C17.0071 0.483887 17.6457 1.12278 17.6457 1.91066Z" fill="#FF840A"/>
<path d="M17.6457 6.86623C17.6457 7.6541 17.0068 8.293 16.2189 8.293C15.431 8.293 14.7921 7.6541 14.7921 6.86623C14.7921 6.07836 15.431 5.43945 16.2189 5.43945C17.0071 5.43945 17.6457 6.07836 17.6457 6.86623Z" fill="#FF840A"/>
<path d="M17.6457 11.8223C17.6457 12.6102 17.0068 13.249 16.2189 13.249C15.431 13.249 14.7921 12.6102 14.7921 11.8223C14.7921 11.0344 15.431 10.3955 16.2189 10.3955C17.0071 10.3955 17.6457 11.0344 17.6457 11.8223Z" fill="#FF840A"/>
<path d="M17.6457 16.7783C17.6457 17.5662 17.0068 18.2051 16.2189 18.2051C15.431 18.2051 14.7921 17.5662 14.7921 16.7783C14.7921 15.9905 15.431 15.3516 16.2189 15.3516C17.0071 15.3519 17.6457 15.9905 17.6457 16.7783Z" fill="#FF840A"/>
<path d="M22.7519 1.91066C22.7519 2.69853 22.1133 3.33744 21.3255 3.33744C20.5376 3.33744 19.8987 2.69853 19.8987 1.91066C19.8987 1.12278 20.5376 0.483887 21.3255 0.483887C22.1133 0.483887 22.7519 1.12278 22.7519 1.91066Z" fill="#FF840A"/>
<path d="M22.7519 6.86623C22.7519 7.6541 22.1133 8.293 21.3255 8.293C20.5376 8.293 19.8987 7.6541 19.8987 6.86623C19.8987 6.07836 20.5376 5.43945 21.3255 5.43945C22.1133 5.43945 22.7519 6.07836 22.7519 6.86623Z" fill="#FF840A"/>
<path d="M22.7519 11.8223C22.7519 12.6102 22.1133 13.249 21.3255 13.249C20.5376 13.249 19.8987 12.6102 19.8987 11.8223C19.8987 11.0344 20.5376 10.3955 21.3255 10.3955C22.1133 10.3955 22.7519 11.0344 22.7519 11.8223Z" fill="#FF840A"/>
<path d="M22.7519 16.7783C22.7519 17.5662 22.1133 18.2051 21.3255 18.2051C20.5376 18.2051 19.8987 17.5662 19.8987 16.7783C19.8987 15.9905 20.5376 15.3516 21.3255 15.3516C22.1133 15.3516 22.7519 15.9905 22.7519 16.7783Z" fill="#FF840A"/>
<path d="M27.8578 1.91066C27.8578 2.69853 27.2189 3.33744 26.431 3.33744C25.6432 3.33744 25.0043 2.69853 25.0043 1.91066C25.0043 1.12278 25.6432 0.483887 26.431 0.483887C27.2189 0.483887 27.8578 1.12278 27.8578 1.91066Z" fill="#FF840A"/>
<path d="M27.8578 6.86623C27.8578 7.6541 27.2189 8.293 26.431 8.293C25.6432 8.293 25.0043 7.6541 25.0043 6.86623C25.0043 6.07836 25.6432 5.43945 26.431 5.43945C27.2189 5.43945 27.8578 6.07836 27.8578 6.86623Z" fill="#FF840A"/>
<path d="M9.83655 4.46326C9.83655 5.08545 9.3324 5.5896 8.71021 5.5896C8.08802 5.5896 7.58386 5.08545 7.58386 4.46326C7.58386 3.84106 8.08802 3.33691 8.71021 3.33691C9.3324 3.33691 9.83655 3.84106 9.83655 4.46326Z" fill="white"/>
<path d="M9.83655 9.41931C9.83655 10.0415 9.3324 10.5457 8.71021 10.5457C8.08802 10.5457 7.58386 10.0415 7.58386 9.41931C7.58386 8.79712 8.08802 8.29297 8.71021 8.29297C9.3324 8.29297 9.83655 8.79712 9.83655 9.41931Z" fill="white"/>
<path d="M14.7924 4.46326C14.7924 5.08545 14.2882 5.5896 13.666 5.5896C13.0438 5.5896 12.5397 5.08545 12.5397 4.46326C12.5397 3.84106 13.0438 3.33691 13.666 3.33691C14.2879 3.33691 14.7924 3.84106 14.7924 4.46326Z" fill="white"/>
<path d="M14.7924 9.41931C14.7924 10.0415 14.2882 10.5457 13.666 10.5457C13.0438 10.5457 12.5397 10.0415 12.5397 9.41931C12.5397 8.79712 13.0438 8.29297 13.666 8.29297C14.2879 8.29297 14.7924 8.79712 14.7924 9.41931Z" fill="white"/>
<path d="M14.7924 14.3749C14.7924 14.9971 14.2882 15.5012 13.666 15.5012C13.0438 15.5012 12.5397 14.9971 12.5397 14.3749C12.5397 13.7527 13.0438 13.2485 13.666 13.2485C14.2879 13.2485 14.7924 13.7527 14.7924 14.3749Z" fill="white"/>
<path d="M14.7924 19.3309C14.7924 19.9531 14.2882 20.4573 13.666 20.4573C13.0438 20.4573 12.5397 19.9531 12.5397 19.3309C12.5397 18.7087 13.0438 18.2046 13.666 18.2046C14.2879 18.2046 14.7924 18.7087 14.7924 19.3309Z" fill="white"/>
<path d="M19.7483 4.46326C19.7483 5.08545 19.2441 5.5896 18.6219 5.5896C17.9998 5.5896 17.4956 5.08545 17.4956 4.46326C17.4956 3.84106 17.9998 3.33691 18.6219 3.33691C19.2438 3.33691 19.7483 3.84106 19.7483 4.46326Z" fill="white"/>
<path d="M19.7483 9.41931C19.7483 10.0415 19.2441 10.5457 18.6219 10.5457C17.9998 10.5457 17.4956 10.0415 17.4956 9.41931C17.4956 8.79712 17.9998 8.29297 18.6219 8.29297C19.2438 8.29297 19.7483 8.79712 19.7483 9.41931Z" fill="white"/>
<path d="M19.7483 14.3749C19.7483 14.9971 19.2441 15.5012 18.6219 15.5012C17.9998 15.5012 17.4956 14.9971 17.4956 14.3749C17.4956 13.7527 17.9998 13.2485 18.6219 13.2485C19.2438 13.2485 19.7483 13.7527 19.7483 14.3749Z" fill="white"/>
<path d="M19.7483 19.3309C19.7483 19.9531 19.2441 20.4573 18.6219 20.4573C17.9998 20.4573 17.4956 19.9531 17.4956 19.3309C17.4956 18.7087 17.9998 18.2046 18.6219 18.2046C19.2438 18.2046 19.7483 18.7087 19.7483 19.3309Z" fill="white"/>
<path d="M24.8541 4.46326C24.8541 5.08545 24.35 5.5896 23.7278 5.5896C23.1056 5.5896 22.6014 5.08545 22.6014 4.46326C22.6014 3.84106 23.1059 3.33691 23.7278 3.33691C24.35 3.33691 24.8541 3.84106 24.8541 4.46326Z" fill="white"/>
<path d="M24.8541 9.41931C24.8541 10.0415 24.35 10.5457 23.7278 10.5457C23.1056 10.5457 22.6014 10.0415 22.6014 9.41931C22.6014 8.79712 23.1059 8.29297 23.7278 8.29297C24.35 8.29297 24.8541 8.79712 24.8541 9.41931Z" fill="white"/>
<path d="M7.13304 6.94098C7.13304 7.43873 6.72951 7.84191 6.23211 7.84191C5.73436 7.84191 5.33118 7.43837 5.33118 6.94098C5.33118 6.44322 5.73471 6.04004 6.23211 6.04004C6.72986 6.04004 7.13304 6.44322 7.13304 6.94098Z" fill="white"/>
<path d="M7.13304 11.8965C7.13304 12.3943 6.72951 12.7975 6.23211 12.7975C5.73436 12.7975 5.33118 12.3939 5.33118 11.8965C5.33118 11.3988 5.73471 10.9956 6.23211 10.9956C6.72986 10.9956 7.13304 11.3991 7.13304 11.8965Z" fill="white"/>
<path d="M4.42989 9.34416C4.42989 9.75872 4.09355 10.0951 3.679 10.0951C3.26444 10.0951 2.9281 9.75872 2.9281 9.34416C2.9281 8.9296 3.26444 8.59326 3.679 8.59326C4.09391 8.59326 4.42989 8.92925 4.42989 9.34416Z" fill="white"/>
<path d="M1.72674 11.8968C1.72674 12.2285 1.45796 12.4976 1.12588 12.4976C0.794167 12.4976 0.525024 12.2288 0.525024 11.8968C0.525024 11.565 0.793811 11.2959 1.12588 11.2959C1.45796 11.2963 1.72674 11.565 1.72674 11.8968Z" fill="white"/>
<path d="M1.72674 16.8528C1.72674 17.1845 1.45796 17.4537 1.12588 17.4537C0.794167 17.4537 0.525024 17.1849 0.525024 16.8528C0.525024 16.5211 0.793811 16.252 1.12588 16.252C1.45796 16.2523 1.72674 16.5211 1.72674 16.8528Z" fill="white"/>
<path d="M6.83294 16.8528C6.83294 17.1845 6.56416 17.4537 6.23208 17.4537C5.90037 17.4537 5.63123 17.1849 5.63123 16.8528C5.63123 16.5211 5.90001 16.252 6.23208 16.252C6.5638 16.2523 6.83294 16.5211 6.83294 16.8528Z" fill="white"/>
<path d="M6.83294 21.9588C6.83294 22.2905 6.56416 22.5596 6.23208 22.5596C5.90037 22.5596 5.63123 22.2908 5.63123 21.9588C5.63123 21.6271 5.90001 21.3579 6.23208 21.3579C6.5638 21.3579 6.83294 21.6271 6.83294 21.9588Z" fill="white"/>
<path d="M6.83294 26.9148C6.83294 27.2465 6.56416 27.5157 6.23208 27.5157C5.90037 27.5157 5.63123 27.2465 5.63123 26.9148C5.63123 26.5831 5.90001 26.314 6.23208 26.314C6.5638 26.314 6.83294 26.5831 6.83294 26.9148Z" fill="white"/>
<path d="M11.7889 26.9148C11.7889 27.2465 11.5201 27.5157 11.188 27.5157C10.8563 27.5157 10.5872 27.2465 10.5872 26.9148C10.5872 26.5831 10.8559 26.314 11.188 26.314C11.5197 26.314 11.7889 26.5831 11.7889 26.9148Z" fill="white"/>
<path d="M4.42989 14.4501C4.42989 14.8647 4.09355 15.201 3.679 15.201C3.26444 15.201 2.9281 14.8647 2.9281 14.4501C2.9281 14.0356 3.26444 13.6992 3.679 13.6992C4.09391 13.6992 4.42989 14.0356 4.42989 14.4501Z" fill="white"/>
<path d="M9.53609 14.4501C9.53609 14.8647 9.19976 15.201 8.7852 15.201C8.37064 15.201 8.0343 14.8647 8.0343 14.4501C8.0343 14.0356 8.37064 13.6992 8.7852 13.6992C9.19976 13.6992 9.53609 14.0356 9.53609 14.4501Z" fill="white"/>
<path d="M9.53609 19.4057C9.53609 19.8202 9.19976 20.1566 8.7852 20.1566C8.37064 20.1566 8.0343 19.8202 8.0343 19.4057C8.0343 18.9911 8.37064 18.6548 8.7852 18.6548C9.19976 18.6548 9.53609 18.9911 9.53609 19.4057Z" fill="white"/>
<path d="M9.53609 24.3617C9.53609 24.7763 9.19976 25.1126 8.7852 25.1126C8.37064 25.1126 8.0343 24.7763 8.0343 24.3617C8.0343 23.9472 8.37064 23.6108 8.7852 23.6108C9.19976 23.6112 9.53609 23.9472 9.53609 24.3617Z" fill="white"/>
<path d="M14.492 24.3617C14.492 24.7763 14.1557 25.1126 13.7411 25.1126C13.3266 25.1126 12.9902 24.7763 12.9902 24.3617C12.9902 23.9472 13.3266 23.6108 13.7411 23.6108C14.1557 23.6112 14.492 23.9472 14.492 24.3617Z" fill="white"/>
<path d="M12.0892 11.8965C12.0892 12.3943 11.6857 12.7975 11.1883 12.7975C10.6905 12.7975 10.2874 12.3939 10.2874 11.8965C10.2874 11.3988 10.6909 10.9956 11.1883 10.9956C11.6857 10.9956 12.0892 11.3991 12.0892 11.8965Z" fill="white"/>
<path d="M12.0892 16.8526C12.0892 17.3504 11.6857 17.7535 11.1883 17.7535C10.6905 17.7535 10.2874 17.35 10.2874 16.8526C10.2874 16.3548 10.6909 15.9517 11.1883 15.9517C11.6857 15.9517 12.0892 16.3552 12.0892 16.8526Z" fill="white"/>
<path d="M12.0892 21.959C12.0892 22.4568 11.6857 22.86 11.1883 22.86C10.6905 22.86 10.2874 22.4568 10.2874 21.959C10.2874 21.4613 10.6909 21.0581 11.1883 21.0581C11.6857 21.0581 12.0892 21.4613 12.0892 21.959Z" fill="white"/>
<path d="M17.1951 21.959C17.1951 22.4568 16.7915 22.86 16.2941 22.86C15.7964 22.86 15.3932 22.4568 15.3932 21.959C15.3932 21.4613 15.7967 21.0581 16.2941 21.0581C16.7915 21.0581 17.1951 21.4613 17.1951 21.959Z" fill="white"/>
<path d="M43.5255 17.7138C43.5255 18.8039 42.642 19.6874 41.5516 19.6874C40.4615 19.6874 39.578 18.8039 39.578 17.7138C39.578 16.6237 40.4615 15.7402 41.5516 15.7402C42.642 15.7402 43.5255 16.6237 43.5255 17.7138Z" fill="#FF840A"/>
<path d="M141.365 7.67916C141.365 8.76924 140.481 9.65275 139.391 9.65275C138.301 9.65275 137.417 8.76924 137.417 7.67916C137.417 6.58908 138.301 5.70557 139.391 5.70557C140.481 5.70557 141.365 6.58908 141.365 7.67916Z" fill="#FF840A"/>
<path d="M39.93 8.33315H35.4524V5.69434H47.6466V8.33315H43.1686V14.2305H39.93V8.33315Z" fill="white"/>
<path d="M57.9017 16.6895H51.4049L50.1655 19.6881H46.8473L53.0845 5.69482H56.2829L62.54 19.6881H59.1418L57.9017 16.6895ZM56.882 14.2306L54.6631 8.87298L52.4442 14.2306H56.882Z" fill="white"/>
<path d="M76.8253 5.69434V19.6876H74.1666L67.1899 11.1917V19.6876H63.9915V5.69434H66.6701L73.6269 14.1903V5.69434H76.8253Z" fill="white"/>
<path d="M90.411 12.4113C91.211 12.6644 91.8371 13.0911 92.29 13.6909C92.7434 14.2772 92.9698 15.0035 92.9698 15.87C92.9698 17.0959 92.4899 18.0423 91.5303 18.7086C90.5838 19.3617 89.1979 19.6881 87.3722 19.6881H80.1356V5.69482H86.9723C88.6781 5.69482 89.984 6.02121 90.8903 6.67433C91.8097 7.32746 92.2698 8.21346 92.2698 9.33305C92.2698 10.0128 92.103 10.619 91.7699 11.1523C91.4503 11.6849 90.9977 12.1048 90.411 12.4113ZM83.3543 8.13346V11.4318H86.573C87.3722 11.4318 87.9792 11.2917 88.3919 11.0119C88.8047 10.7321 89.012 10.319 89.012 9.7725C89.012 9.22604 88.8051 8.81965 88.3919 8.553C87.9788 8.27319 87.3722 8.13311 86.573 8.13311H83.3543V8.13346ZM87.1326 17.2491C87.9855 17.2491 88.6252 17.109 89.0518 16.8292C89.4912 16.5494 89.7117 16.1164 89.7117 15.5297C89.7117 14.3703 88.852 13.7904 87.1326 13.7904H83.3547V17.2488H87.1326V17.2491Z" fill="white"/>
<path d="M104.637 16.6895H98.1402L96.9008 19.6881H93.5825L99.8197 5.69482H103.018L109.275 19.6881H105.877L104.637 16.6895ZM103.618 14.2306L101.399 8.87298L99.1801 14.2306H103.618Z" fill="white"/>
<path d="M110.727 5.69434H113.965V17.0488H120.982V19.6876H110.726V5.69434H110.727Z" fill="white"/>
<path d="M132.124 16.6895H125.627L124.388 19.6881H121.069L127.307 5.69482H130.505L136.762 19.6881H133.364L132.124 16.6895ZM131.105 14.2306L128.885 8.87298L126.667 14.2306H131.105Z" fill="white"/>
<path d="M144.138 19.9276C142.139 19.9276 140.58 19.3744 139.46 18.2683C138.354 17.1622 137.801 15.5829 137.801 13.5304V10.6673H141.039V13.4106C141.039 15.9161 142.079 17.1686 144.158 17.1686C145.17 17.1686 145.944 16.8689 146.477 16.2691C147.01 15.6562 147.277 14.7033 147.277 13.4106V5.69434H150.475V13.5308C150.475 15.5829 149.915 17.1622 148.796 18.2687C147.69 19.3747 146.137 19.9276 144.138 19.9276Z" fill="white"/>
</svg>
